<svg version="1.2" xmlns="http://www.w3.org/2000/svg" viewBox="0 0 40 38" width="40" height="38"><defs><linearGradient id="P" gradientUnits="userSpaceOnUse"/><linearGradient id="g1" x1="1.6" y1=".2" x2="38.6" y2="37.2" href="#P"><stop stop-color="#ff3b49"/><stop offset="1" stop-color="#ff3b49"/></linearGradient></defs><style>.s0{fill:url(#g1)}</style><path class="s0" d="m39.5 14l-17.5 15.9l-2.1 1.9q0 0.1-0.1 0.1q-0.1 0.1-0.2 0.1l-12.7 3.6l-5.3 1.5q-0.2 0.1-0.3 0.1q-0.3 0-0.6-0.3c-0.2-0.2-0.3-0.6-0.2-0.9l2.1-5.2l4.7-12.2q0 0 0-0.1q0.1-0.2 0.2-0.3l2.1-1.9l17.5-15.9c0.2-0.3 0.6-0.3 0.9-0.2c2.7 1.3 5.1 3.1 7.1 5.3c2 2.2 3.6 4.8 4.6 7.6c0.1 0.3 0 0.6-0.2 0.9zm-35.7 18.3q0 0 0.1 0q0.5 0.4 1 0.8q0.4 0.5 0.6 1q0.1 0.1 0.1 0.1l-2.9 0.9zm15.2-1.8l-11.7 3.3q-0.1-0.1-0.2-0.2c-0.2-0.6-0.6-1.2-1-1.6c-0.4-0.5-0.9-0.9-1.5-1.2c-0.1 0-0.1-0.1-0.2-0.1l4.4-11.4l1.3-1.2l1.1 1.2l9.1 10zm2.5-2.4l-2.6-2.9l13.9-12.6q0.2-0.3 0.2-0.7q0-0.3-0.2-0.5c-0.3-0.4-0.8-0.4-1.2-0.1l-13.9 12.7l-0.5-0.6l-2.1-2.3l13.9-12.7q0.3-0.2 0.3-0.6q0-0.3-0.2-0.5c-0.3-0.4-0.9-0.4-1.2-0.1l-13.9 12.7l-2.7-2.9l16.5-15q3.5 1.8 6.1 4.6q2.6 2.9 4.1 6.5z" /></svg>