<svg version="1.2" xmlns="http://www.w3.org/2000/svg" viewBox="0 0 44 33" width="44" height="33"><defs><linearGradient id="P" gradientUnits="userSpaceOnUse"/><linearGradient id="g1" x1="5.5" y1="0" x2="38.5" y2="33" href="#P"><stop stop-color="#ff3b49"/><stop offset="1" stop-color="#ff3b49"/></linearGradient></defs><style>.s0{fill:url(#g1)}</style><path class="s0" d="m44 16.5c0 0.1 0 0.1 0 0.1v10.4c0 0.4-0.4 0.7-0.8 0.7h-2.7c-0.4 0-0.8-0.3-0.8-0.7c0-0.5 0.4-0.8 0.8-0.8h1.9v-8.9h-7.1c-0.5 0-0.8-0.3-0.8-0.8v-9.7h-6.4v14.3c0 0.5-0.3 0.8-0.8 0.8c-0.4 0-0.8-0.3-0.8-0.8v-15.1v-4.4h-24.9v24.6h1.9c0.4 0 0.8 0.3 0.8 0.8c0 0.4-0.4 0.7-0.8 0.7h-2.7c-0.4 0-0.8-0.3-0.8-0.7v-26.2c0-0.5 0.4-0.8 0.8-0.8h26.5c0.5 0 0.8 0.3 0.8 0.8v4.5h15.1c0.4 0 0.8 0.3 0.8 0.7v10.4c0 0.1 0 0.1 0 0.1zm-1.6-0.7h-6.4v-9h6.4zm-3.7 11.2c0 3.4-2.7 6.1-6.1 6.1c-3.4 0-6.1-2.7-6.1-6.1c0-3.3 2.7-6 6.1-6c3.4 0 6.1 2.7 6.1 6zm-6.1 4.5c-2.5 0-4.5-2-4.5-4.5c0-2.4 2-4.4 4.5-4.4c2.5 0 4.5 2 4.5 4.4c0 2.5-2 4.5-4.5 4.5zm-15.1-4.5c0 3.4-2.7 6.1-6.1 6.1c-3.4 0-6.1-2.7-6.1-6.1c0-3.3 2.7-6 6.1-6c3.4 0 6.1 2.7 6.1 6zm-6.1 4.5c-2.5 0-4.5-2-4.5-4.5c0-2.4 2-4.4 4.5-4.4c2.5 0 4.5 2 4.5 4.4c0 2.5-2 4.5-4.5 4.5zm14.1-4.5c0 0.5-0.4 0.8-0.8 0.8h-5.4c-0.4 0-0.8-0.3-0.8-0.8c0-0.4 0.4-0.7 0.8-0.7h5.4c0.4 0 0.8 0.3 0.8 0.7z" /></svg>